# xmcd CD database file
#
# Track frame offsets:
#	150
#	15365
#	30572
#	43155
#	55250
#	67145
#	79292
#	92655
#	107105
#	119782
#	132660
#	145155
#	157832
#	171975
#	183675
#	196592
#	209412
#	222455
#	235805
#	247892
#
# Disc length: 3461 seconds
#
# Revision: 3
# Processed by: cddbd v1.5PL3 Copyright (c) Steve Scherf et al.
# Submitted via: CDex 1.51
#
DISCID=270d8314
DTITLE=Hoosier Hot Shots - Rural Rhythm 1935-1942
DYEAR=1992
DGENRE=Country
TTITLE0=San
TTITLE1=I Like Bananas (Because They Have No Bones)
TTITLE2=Sweet Sue
TTITLE3=Connies Got Connections In Connecticut
TTITLE4=Rural Rhythm
TTITLE5=The Girl Friend Of The Whirling Dervish
TTITLE6=Everybody Stomp
TTITLE7='Taint Nobody's Business What I Do
TTITLE8=That's Where I Meet My Gal
TTITLE9=Goofus
TTITLE10=From The Indies To The Andies In His Undies
TTITLE11=What Is So Rare
TTITLE12=The Coat And Pants Do All The Work
TTITLE13=She's Got A Great Big Army Of Friends
TTITLE14=My Bonnie
TTITLE15=Noah's Wife
TTITLE16=One-Eyed Sam
TTITLE17=I Just Wanna Play With You
TTITLE18=Like A Monkey Likes Cocoanuts
TTITLE19=Moving Day In Jungletown
EXTD=YEAR: 1992
EXTT0=
EXTT1=
EXTT2=
EXTT3=
EXTT4=
EXTT5=
EXTT6=
EXTT7=
EXTT8=
EXTT9=
EXTT10=
EXTT11=
EXTT12=
EXTT13=
EXTT14=
EXTT15=
EXTT16=
EXTT17=
EXTT18=
EXTT19=
PLAYORDER=
